<?xml version="1.0" encoding="UTF-8"?>
<svg width="48px" height="48px" viewBox="0 0 48 48" version="1.1" xmlns="http://www.w3.org/2000/svg" xmlns:xlink="http://www.w3.org/1999/xlink">
    <!-- Generator: Sketch 50.2 (55047) - http://www.bohemiancoding.com/sketch -->
    <title>User</title>
    <desc>Created with Sketch.</desc>
    <defs></defs>
    <g id="Help-Center" stroke="none" stroke-width="1" fill="none" fill-rule="evenodd">
        <g id="HC_Home_Desktop" transform="translate(-274.000000, -848.000000)">
            <g id="What-do-you-need-help-with?" transform="translate(0.000000, 416.000000)">
                <g id="Card-02" transform="translate(250.000000, 408.000000)">
                    <g id="User" transform="translate(24.000000, 24.000000)">
                        <polygon id="Shape" points="0 0 48 0 48 48 0 48"></polygon>
                        <g id="icn_Your-Account-Plan" fill="#5300CC" fill-rule="nonzero">
                            <path d="M24,0 C10.766,0 0,10.766 0,24 C0,30.36 2.464,36.354 6.94,40.876 C11.484,45.47 17.542,48 24,48 C30.468,48 36.536,45.46 41.084,40.854 C45.544,36.334 48,30.348 48,24 C48,10.766 37.234,7.10542736e-15 24,0 Z M9.31,40.34 C11.368,39.214 14.376,38.118 17.312,37.052 C18.34,36.68 19.366,36.308 20.352,35.934 C20.742,35.786 20.998,35.414 20.998,34.998 L20.998,30 C20.998,29.582 20.722,29.204 20.33,29.056 C20.236,29.022 18,28.144 18,24 C18,23.448 17.586,23.012 17.036,23.012 C16.942,22.948 16.76,22.576 16.76,22 C16.76,21.424 16.942,21.052 17,21 C17.552,21 18,20.552 18,20 C18,19.752 17.926,19.488 17.764,18.912 C17.47,17.866 16.69,15.084 17.376,14.182 C17.452,14.078 17.866,13.792 18.804,13.98 C19.324,14.092 19.842,13.762 19.97,13.242 C20.294,11.944 22.622,11 25.5,11 C28.378,11 30.706,11.944 31.03,13.242 C31.488,15.076 30.674,17.618 30.282,18.84 C30.088,19.45 30,19.726 30,20 C30,20.552 30.414,20.988 30.964,20.988 C31.056,21.052 31.238,21.424 31.238,22 C31.238,22.576 31.056,22.948 30.998,23 C30.446,23 29.998,23.448 29.998,24 C29.998,28.144 27.762,29.022 27.682,29.052 C27.276,29.188 27,29.57 27,30 L27,35 C27,35.416 27.258,35.79 27.648,35.938 C28.734,36.344 29.818,36.736 30.876,37.12 C33.896,38.212 36.762,39.252 38.714,40.318 C34.666,43.976 29.5,46 24,46 C18.512,46 13.356,43.984 9.31,40.34 Z M40.216,38.864 C38.122,37.614 35.05,36.502 31.556,35.24 C30.716,34.936 29.86,34.624 29,34.308 L29,30.612 C30.002,29.994 31.768,28.396 31.98,24.74 C32.752,24.288 33.24,23.286 33.24,22 C33.24,20.844 32.844,19.914 32.2,19.412 C32.686,17.898 33.562,15.122 32.97,12.758 C32.276,9.984 28.512,9 25.5,9 C22.816,9 19.536,9.782 18.362,11.912 C16.948,11.828 16.172,12.456 15.782,12.972 C14.512,14.65 15.35,17.708 15.822,19.392 C15.166,19.892 14.76,20.83 14.76,22 C14.76,23.286 15.248,24.288 16.02,24.74 C16.232,28.396 17.998,29.992 19,30.612 L19,34.308 C18.224,34.598 17.428,34.886 16.632,35.174 C13.382,36.352 10.034,37.566 7.806,38.89 C4.056,34.818 2,29.562 2,24 C2,11.87 11.87,2 24,2 C36.13,2 46,11.87 46,24 C46,29.548 43.952,34.794 40.216,38.864 Z" id="Shape"></path>
                        </g>
                    </g>
                </g>
            </g>
        </g>
    </g>
</svg>