<?xml version="1.0" encoding="UTF-8"?>
<!DOCTYPE svg PUBLIC "-//W3C//DTD SVG 1.1//EN" "http://www.w3.org/Graphics/SVG/1.1/DTD/svg11.dtd">
<!-- Creator: CorelDRAW X8 -->
<svg xmlns="http://www.w3.org/2000/svg" xml:space="preserve" width="20mm" height="20mm" version="1.1" style="shape-rendering:geometricPrecision; text-rendering:geometricPrecision; image-rendering:optimizeQuality; fill-rule:evenodd; clip-rule:evenodd"
viewBox="0 0 2000 2000"
 xmlns:xlink="http://www.w3.org/1999/xlink">
 <defs>
  <style type="text/css">
   <![CDATA[
    .str0 {stroke:#89A6CD;stroke-width:50}
    .fil2 {fill:#89A6CD}
    .fil0 {fill:#B6DCFE}
    .fil1 {fill:#DFF0FE}
   ]]>
  </style>
 </defs>
 <g id="Vrstva_x0020_1">
  <metadata id="CorelCorpID_0Corel-Layer"/>
  <path class="fil0 str0" d="M279 353c-9,15 -4,868 -4,1007 0,126 -3,193 70,266 56,56 147,74 237,102 86,27 170,55 256,81 87,27 181,71 274,30 39,-17 74,-43 96,-71 27,-35 38,-71 51,-124l0 -973c0,-254 -102,-264 -315,-332 -80,-26 -163,-52 -247,-78 -80,-26 -171,-66 -266,-34 -122,41 -137,143 -154,168l2 -42z"/>
  <path class="fil1 str0" d="M279 353l-2 42c17,-25 32,-127 154,-168 95,-32 186,8 266,34 84,26 167,52 247,78 213,68 315,78 315,332l0 973c89,1 146,7 216,-35 143,-85 111,-251 111,-407 0,-83 4,-178 -1,-260l0 -94c5,-84 8,-484 -11,-542 -22,-66 -73,-117 -134,-143 -63,-26 -182,-17 -258,-17 -184,0 -369,0 -553,0 -90,0 -172,-10 -241,33 -47,30 -110,93 -109,174z"/>
  <path class="fil2 str0" d="M1257 898l0 93 306 0c-6,13 -1,5 -10,16l-40 39c-39,40 -97,80 -51,121 28,24 52,9 70,-10l151 -152c73,-72 53,-69 -50,-172 -35,-34 -67,-66 -101,-101 -56,-58 -116,16 -69,61 18,17 33,32 50,50 16,16 41,34 50,55l-306 0z"/>
  <path class="fil2 str0" d="M823 1038c-52,17 -39,85 12,91 22,2 145,2 161,-4 41,-15 38,-83 -16,-89 -23,-3 -141,-3 -157,2z"/>
 </g>
</svg>
