<?xml version="1.0" encoding="UTF-8"?>
<!DOCTYPE svg PUBLIC "-//W3C//DTD SVG 1.1//EN" "http://www.w3.org/Graphics/SVG/1.1/DTD/svg11.dtd">
<!-- Creator: CorelDRAW X8 -->
<svg xmlns="http://www.w3.org/2000/svg" xml:space="preserve" width="20mm" height="20mm" version="1.1" style="shape-rendering:geometricPrecision; text-rendering:geometricPrecision; image-rendering:optimizeQuality; fill-rule:evenodd; clip-rule:evenodd"
viewBox="0 0 2000 2000"
 xmlns:xlink="http://www.w3.org/1999/xlink">
 <defs>
  <style type="text/css">
   <![CDATA[
    .fil0 {fill:#455572}
    .fil4 {fill:#89A6CD}
    .fil3 {fill:#8BB7F0}
    .fil5 {fill:#8F99AD}
    .fil2 {fill:#C3CDE6}
    .fil1 {fill:#D5DFEF}
   ]]>
  </style>
 </defs>
 <g id="Vrstva_x0020_1">
  <metadata id="CorelCorpID_0Corel-Layer"/>
  <path class="fil0" d="M240 353l0 1295c2,2 2,1 4,7l10 26c48,96 145,76 253,76l0 -621c1,-156 -17,-181 75,-181 138,1 281,-2 418,0 138,3 285,1 424,1 33,0 48,-1 62,21 14,21 6,126 6,160l1 620c86,0 187,17 236,-48 28,-38 22,-49 31,-64l0 -1049c-10,-17 -3,-59 -58,-120l-178 -178c-34,-30 -63,-46 -120,-56 -3,76 -1,159 -1,236 0,78 0,156 0,234 1,45 -10,63 -56,62l-584 1c-39,0 -81,1 -119,0 -49,-2 -48,-40 -48,-69 1,-155 0,-310 0,-466l-247 0c0,1 -1,1 -2,1l-39 17c-24,13 -41,32 -53,56 -7,13 -9,28 -15,39z"/>
  <path class="fil1" d="M1404 242l0 -2 -178 0 0 446 -270 -1 0 -445 -360 0c0,156 1,311 0,466 0,29 -1,67 48,69 38,1 80,0 119,0l584 -1c46,1 57,-17 56,-62 0,-78 0,-156 0,-234 0,-77 -2,-160 1,-236z"/>
  <path class="fil1" d="M507 1757l0 3 494 0 0 -178c-59,-3 -121,-1 -179,-1 -49,0 -136,17 -136,-44 0,-60 85,-44 133,-44 59,0 123,2 182,0l0 -89c-59,-3 -123,-1 -182,-1 -48,0 -133,16 -133,-44 0,-61 87,-44 136,-44 58,0 120,2 179,0l-1 -179 -493 0 0 621z"/>
  <path class="fil2" d="M1001 1315c58,-3 121,-1 180,-1 50,0 134,-15 134,45 0,61 -86,45 -137,45 -58,0 -120,2 -177,0l0 89c58,-3 121,-1 180,-1 50,0 134,-15 134,45 0,61 -86,45 -137,45 -58,0 -120,2 -177,0l0 178 492 0 0 -3 -1 -620 -492 -1 1 179z"/>
  <polygon class="fil0" points="1226,240 956,240 956,685 1226,686 "/>
  <path class="fil3" d="M507 1136l493 0 0 -181c-137,-2 -280,1 -418,0 -92,0 -74,25 -75,181z"/>
  <path class="fil4" d="M1000 1136l492 1c0,-34 8,-139 -6,-160 -14,-22 -29,-21 -62,-21 -139,0 -286,2 -424,-1l0 181z"/>
  <path class="fil5" d="M1001 1582c57,2 119,0 177,0 51,0 137,16 137,-45 0,-60 -84,-45 -134,-45 -59,0 -122,-2 -180,1 -59,2 -123,0 -182,0 -48,0 -133,-16 -133,44 0,61 87,44 136,44 58,0 120,-2 179,1z"/>
  <path class="fil5" d="M1001 1404c57,2 119,0 177,0 51,0 137,16 137,-45 0,-60 -84,-45 -134,-45 -59,0 -122,-2 -180,1 -59,2 -121,0 -179,0 -49,0 -136,-17 -136,44 0,60 85,44 133,44 59,0 123,-2 182,1z"/>
 </g>
</svg>
