<?xml version="1.0" encoding="UTF-8"?>
<!DOCTYPE svg PUBLIC "-//W3C//DTD SVG 1.1//EN" "http://www.w3.org/Graphics/SVG/1.1/DTD/svg11.dtd">
<!-- Creator: CorelDRAW X8 -->
<svg xmlns="http://www.w3.org/2000/svg" xml:space="preserve" width="20mm" height="20mm" version="1.1" style="shape-rendering:geometricPrecision; text-rendering:geometricPrecision; image-rendering:optimizeQuality; fill-rule:evenodd; clip-rule:evenodd"
viewBox="0 0 2000 2000"
 xmlns:xlink="http://www.w3.org/1999/xlink">
 <defs>
  <style type="text/css">
   <![CDATA[
    .str0 {stroke:#89A6CD;stroke-width:50}
    .fil1 {fill:#8BB7F0}
    .fil2 {fill:#B6DCFE}
    .fil0 {fill:#DFF0FE}
   ]]>
  </style>
 </defs>
 <g id="Vrstva_x0020_1">
  <metadata id="CorelCorpID_0Corel-Layer"/>
  <path class="fil0 str0" d="M255 279l0 1296c0,64 49,70 83,81l353 114 0 -1429c-16,-2 -30,-10 -46,-15 -18,-6 -33,-10 -49,-16l-191 -63c-16,-5 -82,-30 -96,-30 -24,0 -54,30 -54,62z"/>
  <path class="fil1 str0" d="M1309 1663l93 30c36,14 262,90 282,90 38,0 61,-30 61,-62l0 -1291c0,-27 -11,-49 -26,-59 -14,-11 -39,-17 -57,-23 -41,-13 -79,-27 -118,-38l-235 -75 0 1428z"/>
  <path class="fil2 str0" d="M782 350l0 1420c17,0 41,-9 55,-12 19,-5 36,-10 54,-14l216 -57c20,-5 37,-9 54,-14 18,-4 40,-12 57,-14l0 -1424 -436 115z"/>
 </g>
</svg>
