<?xml version="1.0" encoding="UTF-8"?>
<!DOCTYPE svg PUBLIC "-//W3C//DTD SVG 1.1//EN" "http://www.w3.org/Graphics/SVG/1.1/DTD/svg11.dtd">
<!-- Creator: CorelDRAW X8 -->
<svg xmlns="http://www.w3.org/2000/svg" xml:space="preserve" width="20mm" height="20mm" version="1.1" style="shape-rendering:geometricPrecision; text-rendering:geometricPrecision; image-rendering:optimizeQuality; fill-rule:evenodd; clip-rule:evenodd"
viewBox="0 0 2000 2000"
 xmlns:xlink="http://www.w3.org/1999/xlink">
 <defs>
  <style type="text/css">
   <![CDATA[
    .str0 {stroke:#89A6CD;stroke-width:50}
    .fil1 {fill:#89A6CD}
    .fil0 {fill:#DFF0FE}
   ]]>
  </style>
 </defs>
 <g id="Vrstva_x0020_1">
  <metadata id="CorelCorpID_0Corel-Layer"/>
  <rect class="fil0 str0" x="240" y="240" width="1520" height="1520" rx="194" ry="194"/>
  <path class="fil1" d="M420 1672l0 28c0,18 22,39 39,39l1082 0c17,0 39,-21 39,-39 0,-80 -8,-124 -31,-195 -40,-119 -114,-210 -212,-284 -13,-9 -48,-33 -64,-37 -6,4 -6,6 -12,11 -26,25 -69,50 -102,65 -99,44 -216,42 -316,1 -75,-32 -88,-57 -116,-77 -36,9 -126,85 -154,117 -6,6 -6,8 -12,14 -80,86 -141,234 -141,357z"/>
  <path class="fil1" d="M688 878c0,97 24,168 91,235 51,51 128,91 207,91 56,0 99,-6 148,-31 51,-27 105,-72 134,-123 73,-128 57,-275 -47,-379 -27,-28 -50,-44 -86,-62 -87,-44 -211,-39 -292,12 -88,55 -155,148 -155,257z"/>
 </g>
</svg>
